#!OML:ASF F:\VICON\USERDATA\INSTALL\rory3\rory3.ASF
:FULLY-SPECIFIED
:DEGREES
167
root 4.69373 17.8665 10.3858 -4.83925 -4.20497 -0.835889
lowerback 10.6257 1.89829 0.599401
upperback -0.0927083 2.62973 0.47837
thorax -6.0556 1.28021 -0.247858
lowerneck -16.2305 -3.71183 -1.74448
upperneck 21.8652 -5.03446 1.23641
head 9.68015 -2.34292 0.0626299
rclavicle 3.32574e-014 -1.65488e-014
rhumerus -28.3363 -19.7743 -77.2462
rradius 28.222
rwrist 2.86224
rhand -18.8946 23.5228
rfingers 7.12502
rthumb 7.40692 -6.32757
lclavicle 3.32574e-014 -1.65488e-014
lhumerus -39.8013 3.71067 83.0956
lradius 23.8296
lwrist 2.7119
lhand -24.9945 25.8786
lfingers 7.12502
lthumb 1.51688 55.8529
rfemur -2.72016 3.07832 23.5693
rtibia 65.2645
rfoot 21.6112 -2.96429
rtoes 22.8678
lfemur -16.6812 -1.47964 -20.9983
ltibia 28.4244
lfoot -5.99572 -5.41735
ltoes 0.387995
168
root 4.69862 17.8638 10.5681 -4.86195 -4.0334 -0.386691
lowerback 10.4126 1.73795 -0.00239301
upperback 0.101989 2.33794 0.449051
thorax -5.75475 1.15575 0.115579
lowerneck -16.349 -3.58477 -1.66697
upperneck 21.44 -4.82406 1.07119
head 9.54226 -2.26032 0.0224581
rclavicle -1.38916e-015 -1.47598e-014
rhumerus -28.0157 -19.715 -77.4376
rradius 27.6987
rwrist 2.90115
rhand -19.1151 23.7422
rfingers 7.12502
rthumb 7.19403 -6.11548
lclavicle -1.38916e-015 -1.47598e-014
lhumerus -39.2256 3.69959 83.1773
lradius 23.2708
lwrist 4.27146
lhand -26.4362 22.643
lfingers 7.12502
lthumb 0.124473 52.6227
rfemur -4.34288 2.72875 23.0798
rtibia 67.4126
rfoot 20.4672 -4.49232
rtoes 22.4812
lfemur -16.0742 -1.71316 -21.6471
ltibia 28.5487
lfoot -6.4612 -5.09734
ltoes 0.964658
169
root 4.7035 17.8703 10.7485 -4.93467 -3.82169 -0.110298
lowerback 10.2792 1.5939 -0.305595
upperback 0.227222 2.10553 0.383579
thorax -5.55528 1.04922 0.258984
lowerneck -16.4043 -3.46798 -1.72879
upperneck 21.3301 -4.68061 1.23495
head 9.51799 -2.18036 0.10784
rclavicle 1.36373e-014 -1.55052e-014
rhumerus -27.9079 -20.182 -77.4707
rradius 27.0658
rwrist 3.19603
rhand -19.085 24.0224
rfingers 7.12502
rthumb 7.22308 -5.83437
lclavicle 1.36373e-014 -1.55052e-014
lhumerus -38.8472 3.22587 83.3079
lradius 23.1374
lwrist 5.56537
lhand -26.7278 22.711
lfingers 7.12502
lthumb -0.157183 52.6907
rfemur -5.79432 2.2151 22.7724
rtibia 69.3289
rfoot 18.3684 -5.64958
rtoes 22.1386
lfemur -15.3885 -2.00392 -22.1082
ltibia 28.8383
lfoot -7.33181 -4.81814
ltoes 0.947558
170
root 4.71368 17.8865 10.9555 -5.17038 -3.51056 0.536991
lowerback 10.1359 1.48128 -0.922619
upperback 0.352189 1.8761 0.241513
thorax -5.3566 0.950078 0.497551
lowerneck -16.5347 -3.42059 -1.79407
upperneck 21.4362 -4.58547 1.18635
head 9.57835 -2.14524 0.111035
rclavicle -1.51843e-014 0
rhumerus -27.991 -20.5993 -77.3147
rradius 26.5569
rwrist 3.61328
rhand -18.8946 24.4311
rfingers 7.12502
rthumb 7.4069 -5.41919
lclavicle -1.51843e-014 0
lhumerus -38.5866 2.98075 83.3451
lradius 23.0593
lwrist 6.19412
lhand -27.3278 21.0942
lfingers 7.12502
lthumb -0.736672 51.0727
rfemur -6.80468 1.44903 21.8978
rtibia 70.9171
rfoot 15.646 -6.25776
rtoes 20.0311
lfemur -14.4419 -2.32075 -23.0662
ltibia 29.0679
lfoot -8.12382 -4.39022
ltoes 1.84235
171
root 4.70822 17.89 11.1121 -5.0536 -3.47858 0.159167
lowerback 10.5284 1.38049 -0.737719
upperback 0.164038 1.77267 0.446974
thorax -5.77412 0.898066 0.611215
lowerneck -16.2254 -3.38751 -2.06659
upperneck 21.1162 -4.49051 1.29421
head 9.41702 -2.11564 0.213612
rclavicle -1.45672e-014 -1.27222e-014
rhumerus -28.1758 -20.8886 -77.1464
rradius 26.1619
rwrist 4.14383
rhand -18.7386 24.1405
rfingers 7.12502
rthumb 7.55743 -5.70446
lclavicle -1.45672e-014 -1.27222e-014
lhumerus -38.4872 2.73738 83.3698
lradius 23.0055
lwrist 6.76362
lhand -28.0686 18.9899
lfingers 7.12502
lthumb -1.45213 48.9647
rfemur -8.61697 1.18726 22.5239
rtibia 72.3561
rfoot 13.3928 -7.35669
rtoes 16.1436
lfemur -14.0759 -2.50933 -22.7067
ltibia 29.1728
lfoot -8.58178 -4.05649
ltoes 2.27383
172
root 4.71308 17.9054 11.297 -5.16413 -3.41516 0.226031
lowerback 10.6072 1.28964 -0.745121
upperback 0.153628 1.64777 0.403179
thorax -5.82597 0.836303 0.586987
lowerneck -15.9283 -3.35667 -2.09028
upperneck 20.9999 -4.45785 1.34778
head 9.32285 -2.09963 0.246137
rclavicle 1.49966e-014 -2.98177e-015
rhumerus -28.4048 -21.2902 -77.0884
rradius 25.7386
rwrist 4.62146
rhand -18.6038 23.6761
rfingers 7.12502
rthumb 7.68755 -6.16416
lclavicle 1.49966e-014 -2.98177e-015
lhumerus -38.43 2.1162 83.4648
lradius 22.9508
lwrist 8.20711
lhand -29.0131 15.9785
lfingers 7.12502
lthumb -2.36439 45.9452
rfemur -9.9094 0.901767 22.4786
rtibia 73.4306
rfoot 10.065 -8.25628
rtoes 9.49385
lfemur -13.1988 -2.78284 -22.9271
ltibia 29.0613
lfoot -9.03383 -3.59104
ltoes 2.42992
173
root 4.71945 17.9238 11.4927 -5.36097 -3.07889 0.682261
lowerback 10.4442 1.17035 -1.16158
upperback 0.292348 1.43353 0.289349
thorax -5.59191 0.739653 0.740359
lowerneck -15.9472 -3.36297 -1.91012
upperneck 21.1233 -4.43196 0.994088
head 9.35538 -2.11213 0.0971664
rclavicle 4.45363e-015 -7.05686e-015
rhumerus -28.5144 -22.4359 -76.7237
rradius 25.1107
rwrist 5.77158
rhand -18.25 23.3837
rfingers 7.12502
rthumb 8.02903 -6.44377
lclavicle 4.45363e-015 -7.05686e-015
lhumerus -38.0779 1.57473 83.7006
lradius 22.3808
lwrist 10.3091
lhand -30.1429 8.83014
lfingers 7.12502
lthumb -3.45541 38.7819
rfemur -10.8747 0.426861 21.896
rtibia 74.2309
rfoot 8.22369 -8.61392
rtoes 11.5002
lfemur -12.2187 -3.21537 -23.6477
ltibia 28.9968
lfoot -9.54361 -3.21318
ltoes 2.07069
174
root 4.72117 17.9323 11.673 -5.4402 -2.78828 0.635186
lowerback 10.431 1.03641 -1.15169
upperback 0.329341 1.2598 0.340575
thorax -5.54252 0.654229 0.815329
lowerneck -15.8738 -3.35424 -1.92916
upperneck 21.1752 -4.39842 0.914492
head 9.35787 -2.10733 0.0781372
rclavicle 4.2133e-015 -1.08338e-014
rhumerus -28.806 -22.9796 -76.523
rradius 24.9379
rwrist 6.51676
rhand -18.0776 22.7222
rfingers 7.12502
rthumb 8.19546 -7.0989
lclavicle 4.2133e-015 -1.08338e-014
lhumerus -37.7275 2.34997 82.9609
lradius 22.7708
lwrist 7.39899
lhand -28.5086 15.1861
lfingers 7.12502
lthumb -1.87711 45.1576
rfemur -12.0587 0.0792328 21.9956
rtibia 74.8115
rfoot 6.3161 -8.77443
rtoes 11.2294
lfemur -11.3851 -3.5935 -23.7662
ltibia 28.7385
lfoot -9.94596 -2.86791
ltoes 1.40489
175
root 4.71784 17.941 11.8436 -5.47528 -2.85994 0.235984
lowerback 10.5344 0.955564 -0.877321
upperback 0.321011 1.1943 0.516146
thorax -5.60587 0.617336 0.852632
lowerneck -15.6051 -3.21134 -1.96177
upperneck 20.9786 -4.20097 0.951428
head 9.23839 -2.01666 0.12765
rclavicle 6.92369e-015 1.49089e-014
rhumerus -29.2224 -22.8353 -76.5422
rradius 25.0506
rwrist 6.74596
rhand -17.7848 22.7995
rfingers 7.12502
rthumb 8.47799 -7.0103
lclavicle 6.92369e-015 1.49089e-014
lhumerus -37.4471 2.7114 82.5376
lradius 23.0738
lwrist 5.27895
lhand -27.3046 20.6144
lfingers 7.12502
lthumb -0.71431 50.593
rfemur -13.3814 0.0974166 22.6189
rtibia 75.2139
rfoot 4.99129 -8.89047
rtoes 8.29261
lfemur -10.666 -3.85657 -23.4062
ltibia 28.5151
lfoot -9.25537 -2.42493
ltoes 1.44469
176
root 4.71709 17.961 12.0267 -5.58507 -2.90639 0.359085
lowerback 10.5562 0.924068 -1.04669
upperback 0.385165 1.13157 0.513967
thorax -5.5525 0.590331 0.955579
lowerneck -15.6881 -3.20126 -1.95908
upperneck 21.0176 -4.16846 0.873624
head 9.2649 -2.00931 0.102956
rclavicle 2.49747e-014 8.64713e-015
rhumerus -29.4961 -23.07 -76.4412
rradius 24.8173
rwrist 7.1657
rhand -17.6078 23.9445
rfingers 7.12502
rthumb 8.64881 -5.85831
lclavicle 2.49747e-014 8.64713e-015
lhumerus -36.9844 2.69906 82.3617
lradius 23.0703
lwrist 4.55473
lhand -27.0861 22.7988
lfingers 7.12502
lthumb -0.503216 52.7779
rfemur -14.468 0.088928 22.5258
rtibia 75.4204
rfoot 5.93327 -8.67331
rtoes 14.4691
lfemur -9.76633 -4.03428 -23.658
ltibia 28.5528
lfoot -11.0931 -1.85838
ltoes -0.604296
177
root 4.71735 17.9708 12.2011 -5.64803 -2.86616 0.441156
lowerback 10.7036 0.843819 -1.17391
upperback 0.368052 1.00795 0.516155
thorax -5.65237 0.533373 1.04658
lowerneck -15.7963 -3.23291 -1.9062
upperneck 21.1667 -4.18663 0.702229
head 9.33174 -2.03162 0.0300223
rclavicle 1.59688e-015 -1.68967e-015
rhumerus -29.7665 -23.4257 -76.3201
rradius 24.6984
rwrist 7.85078
rhand -17.4468 24.9624
rfingers 7.12502
rthumb 8.80415 -4.83391
lclavicle 1.59688e-015 -1.68967e-015
lhumerus -36.7505 2.47811 82.264
lradius 23.2076
lwrist 4.41059
lhand -27.4195 23.3382
lfingers 7.12502
lthumb -0.825287 53.3164
rfemur -15.6047 0.110808 22.478
rtibia 75.4866
rfoot 5.50029 -8.52142
rtoes 16.0925
lfemur -9.04913 -4.13273 -23.8773
ltibia 28.7079
lfoot -11.5136 -1.49064
ltoes -0.290581
178
root 4.70926 17.955 12.3624 -5.71647 -2.97091 0.0973008
lowerback 10.8893 0.786384 -0.940043
upperback 0.36794 0.965774 0.636821
thorax -5.75376 0.508402 1.04558
lowerneck -15.6145 -3.16558 -1.77823
upperneck 21.1451 -4.10452 0.59716
head 9.28393 -1.99621 -0.0133262
rclavicle 8.62073e-015 1.36167e-014
rhumerus -30.1242 -23.3483 -76.4015
rradius 24.8844
rwrist 8.0263
rhand -17.4138 24.9926
rfingers 7.12502
rthumb 8.83608 -4.80243
lclavicle 8.62073e-015 1.36167e-014
lhumerus -36.4749 2.60078 81.8853
lradius 23.6545
lwrist 3.72223
lhand -26.4699 25.2744
lfingers 7.12502
lthumb 0.0918887 55.2541
rfemur -16.809 0.448392 23.0847
rtibia 75.4691
rfoot 4.09245 -8.5696
rtoes 15.5261
lfemur -8.54669 -4.0038 -23.5769
ltibia 28.862
lfoot -11.8776 -1.19255
ltoes -1.23078
